<?xml version="1.0" standalone="no"?>
<!DOCTYPE svg PUBLIC "-//W3C//DTD SVG 20010904//EN"
 "http://www.w3.org/TR/2001/REC-SVG-20010904/DTD/svg10.dtd">
<svg version="1.0" xmlns="http://www.w3.org/2000/svg"
 width="250.000000pt" height="250.000000pt" viewBox="0 0 250.000000 250.000000"
 preserveAspectRatio="xMidYMid meet">
<metadata>
Created by potrace 1.11, written by Peter Selinger 2001-2013
</metadata>
<g transform="translate(0.000000,250.000000) scale(0.100000,-0.100000)"
fill="#000000" stroke="none">
<path d="M1065 2485 c-385 -61 -714 -288 -902 -620 -306 -543 -168 -1225 327
-1604 452 -347 1068 -347 1520 0 548 420 651 1200 229 1749 -275 360 -734 545
-1174 475z m445 -64 c460 -105 816 -466 916 -931 26 -118 26 -362 0 -480 -102
-472 -464 -834 -936 -936 -118 -26 -362 -26 -480 0 -472 102 -834 464 -936
936 -26 118 -26 362 0 480 90 414 383 750 781 893 62 22 168 47 260 61 68 10
312 -4 395 -23z"/>
<path d="M1850 1704 c0 -4 19 -36 41 -71 33 -50 47 -63 68 -64 17 -1 20 -3 9
-6 -22 -6 -22 -8 -1 -44 11 -19 26 -29 40 -29 24 0 32 -15 11 -23 -10 -3 -10
-9 0 -28 31 -57 38 -61 118 -68 56 -4 80 -11 87 -23 19 -29 -8 -48 -72 -48
-31 0 -67 -6 -80 -13 -31 -15 -70 -79 -53 -85 21 -7 13 -22 -11 -22 -14 0 -29
-10 -40 -29 -21 -36 -21 -41 -1 -41 8 0 12 -5 9 -11 -4 -6 -13 -8 -19 -6 -7 3
-17 2 -22 -1 -18 -13 -87 -122 -81 -128 10 -10 539 329 549 352 7 14 7 28 0
40 -6 11 -128 93 -272 184 -276 174 -280 176 -280 164z"/>
<path d="M377 1593 c-3 -5 -1 -17 3 -27 3 -11 -8 -80 -26 -160 -18 -78 -33
-144 -34 -148 0 -5 20 -8 43 -8 l44 0 9 74 9 74 35 -17 c27 -12 35 -23 35 -42
0 -16 13 -38 36 -60 35 -33 38 -34 108 -31 39 2 71 6 71 9 0 2 -48 63 -107
136 -129 156 -143 176 -136 193 4 11 -6 14 -40 14 -25 0 -48 -3 -50 -7z m73
-149 c0 -8 -4 -14 -10 -14 -5 0 -10 9 -10 21 0 11 5 17 10 14 6 -3 10 -13 10
-21z"/>
<path d="M722 1581 c-23 -14 -10 -46 18 -46 16 0 26 6 28 19 3 16 -12 36 -28
36 -3 0 -11 -4 -18 -9z"/>
<path d="M1655 1534 c-11 -12 -15 -38 -15 -103 0 -74 3 -93 21 -115 19 -25 25
-26 109 -26 68 0 89 3 94 15 11 29 -22 45 -95 45 l-69 0 0 49 0 50 37 3 c65 5
56 57 -9 58 -17 0 -28 5 -28 14 0 21 -27 27 -45 10z"/>
<path d="M722 1502 c-9 -6 -12 -35 -10 -108 3 -98 3 -99 28 -99 25 0 25 1 28
99 3 94 -3 116 -28 116 -3 0 -11 -4 -18 -8z"/>
<path d="M822 1498 c-29 -14 -34 -36 -30 -128 3 -64 6 -75 22 -78 27 -6 36 15
36 91 l0 67 54 0 c57 0 78 18 55 46 -14 17 -103 18 -137 2z"/>
<path d="M1006 1489 c-23 -18 -27 -27 -24 -68 3 -42 5 -46 28 -46 22 0 25 5
28 38 l3 37 50 0 49 0 0 -55 0 -54 -77 -3 -78 -3 0 -60 c0 -57 1 -60 25 -60
22 0 25 5 28 38 l3 37 63 0 c84 0 96 13 96 106 0 38 -4 74 -8 80 -26 39 -142
48 -186 13z"/>
<path d="M1260 1503 c-30 -11 -40 -37 -40 -108 0 -94 11 -105 108 -105 97 0
112 15 112 105 0 57 -3 69 -25 90 -20 21 -33 25 -82 24 -32 0 -65 -3 -73 -6z
m120 -103 l0 -50 -55 0 -55 0 0 43 c0 24 3 47 7 50 3 4 28 7 55 7 l48 0 0 -50z"/>
<path d="M1474 1485 c-23 -23 -25 -31 -22 -107 3 -81 4 -83 28 -83 24 0 25 2
28 78 l3 77 55 0 c40 0 56 4 60 15 11 28 -16 45 -73 45 -44 0 -58 -4 -79 -25z"/>
<path d="M290 1195 c0 -21 5 -25 30 -25 23 0 30 -4 30 -20 0 -13 -7 -20 -20
-20 -11 0 -20 7 -20 15 0 8 -5 15 -11 15 -6 0 -9 -10 -7 -22 2 -18 11 -24 37
-26 20 -2 37 2 42 10 7 10 9 10 9 1 0 -8 15 -13 40 -13 l40 0 0 40 0 40 -40 0
c-22 0 -40 -4 -40 -10 0 -5 14 -10 30 -10 23 0 30 -4 30 -20 0 -14 -6 -20 -22
-19 -17 1 -19 2 -5 6 29 8 19 26 -13 21 -24 -4 -30 -1 -30 14 0 13 -8 18 -30
18 -20 0 -30 5 -30 15 0 8 -4 15 -10 15 -5 0 -10 -11 -10 -25z"/>
<path d="M530 1210 c0 -5 5 -10 10 -10 6 0 10 5 10 10 0 6 -4 10 -10 10 -5 0
-10 -4 -10 -10z"/>
<path d="M1660 1210 c0 -5 5 -10 10 -10 6 0 10 5 10 10 0 6 -4 10 -10 10 -5 0
-10 -4 -10 -10z"/>
<path d="M700 1159 l0 -49 40 0 c22 0 40 5 40 10 0 6 -13 10 -30 10 -23 0 -30
4 -30 20 0 11 7 20 15 20 23 0 18 14 -10 27 -25 11 -25 11 -25 -38z"/>
<path d="M1392 1159 c3 -43 4 -44 41 -47 21 -2 37 1 37 7 0 6 -13 11 -30 11
-23 0 -30 4 -30 20 0 11 7 20 15 20 8 0 15 5 15 10 0 6 -4 10 -9 10 -5 0 -17
3 -26 6 -14 6 -16 0 -13 -37z"/>
<path d="M1570 1184 c0 -14 -3 -15 -12 -6 -14 14 -78 16 -78 2 0 -5 14 -10 30
-10 23 0 30 -4 30 -20 0 -14 -6 -20 -22 -19 -17 1 -19 2 -5 6 26 7 21 23 -8
23 -20 0 -25 -5 -25 -25 0 -22 4 -25 40 -25 24 0 40 5 40 12 0 9 3 9 12 0 14
-14 78 -16 78 -2 0 6 -13 10 -30 10 -23 0 -30 4 -30 20 0 11 7 20 15 20 8 0
15 5 15 10 0 6 -4 10 -9 10 -5 0 -16 3 -25 6 -11 4 -16 0 -16 -12z"/>
<path d="M500 1179 c0 -5 7 -9 15 -9 8 0 15 -9 15 -20 0 -15 -7 -20 -24 -20
-14 0 -28 -4 -31 -10 -4 -6 10 -10 34 -10 22 0 42 5 44 13 4 10 6 10 6 0 1 -8
16 -13 40 -13 43 0 59 21 46 60 -5 17 -15 19 -76 19 -38 -1 -69 -5 -69 -10z
m125 -29 c0 -9 -10 -16 -25 -17 -14 -1 -18 0 -7 3 26 8 21 22 -10 27 -21 4
-19 4 7 3 24 -1 35 -6 35 -16z"/>
<path d="M797 1183 c-11 -10 -8 -73 3 -73 6 0 10 14 10 30 0 23 4 30 20 30 11
0 20 5 20 10 0 11 -43 14 -53 3z"/>
<path d="M860 1180 c0 -5 14 -10 30 -10 23 0 30 -4 30 -20 0 -14 -6 -20 -22
-19 -17 1 -19 2 -5 6 26 7 21 23 -8 23 -20 0 -25 -5 -25 -25 0 -22 4 -25 39
-25 22 0 42 5 44 13 4 10 6 10 6 0 2 -27 21 -11 21 17 0 23 5 30 19 30 14 0
21 -8 23 -27 3 -26 7 -28 54 -31 37 -3 53 0 57 11 8 20 -4 34 -33 40 -25 4
-25 4 3 6 15 0 27 6 27 11 0 14 -64 12 -78 -2 -9 -9 -12 -9 -12 0 0 16 -62 16
-78 0 -9 -9 -12 -9 -12 0 0 7 -16 12 -40 12 -22 0 -40 -4 -40 -10z m240 -45
c0 -2 -13 -5 -30 -7 -19 -3 -30 0 -30 7 0 7 11 10 30 7 17 -2 30 -5 30 -7z"/>
<path d="M1137 1183 c-11 -10 -8 -43 3 -43 6 0 10 7 10 16 0 10 7 14 23 12 33
-5 27 -32 -8 -38 -21 -4 -31 -11 -33 -28 -4 -25 13 -30 22 -7 3 8 16 15 29 15
13 0 28 5 35 12 9 9 12 9 12 -1 0 -9 15 -11 52 -9 48 4 53 7 53 29 0 17 6 25
23 27 33 5 27 22 -8 22 -17 0 -30 -5 -30 -12 0 -9 -3 -9 -12 0 -16 16 -78 16
-78 0 0 -9 -3 -9 -12 0 -13 13 -70 17 -81 5z m153 -33 c0 -21 -33 -29 -45 -10
-9 15 4 30 26 30 12 0 19 -7 19 -20z"/>
<path d="M1660 1149 l0 -36 69 0 c68 -1 70 0 73 25 4 38 42 38 46 0 5 -43 24
-33 20 10 -3 34 -6 37 -36 40 -18 2 -40 -2 -48 -9 -10 -8 -14 -8 -14 0 0 7
-19 11 -55 9 l-55 -2 0 -37z m95 1 c0 -8 -10 -16 -22 -18 -18 -3 -23 2 -23 18
0 16 5 21 23 18 12 -2 22 -10 22 -18z"/>
</g>
</svg>
