<?xml version="1.0" encoding="UTF-8"?>
<svg width="480px" height="304px" viewBox="0 0 480 304" version="1.1" xmlns="http://www.w3.org/2000/svg" xmlns:xlink="http://www.w3.org/1999/xlink">
    <!-- Generator: Sketch 55.2 (78181) - https://sketchapp.com -->
    <title>van</title>
    <desc>Created with Sketch.</desc>
    <g id="Page-1" stroke="none" stroke-width="1" fill="none" fill-rule="evenodd">
        <g id="van" fill="#000000" fill-rule="nonzero">
            <path d="M463.592,100.288 L379.72,16.4 C369.23821,5.86670951 354.979901,-0.0382466134 340.12,-0.000184641699 L24,-0.000184641699 C10.745166,-0.000184641699 -7.10542736e-15,10.745166 -7.10542736e-15,24 L-7.10542736e-15,216 C0.0264489307,238.080425 17.9195748,255.973551 40,256 L48.64,256 C52.5943603,283.534296 76.1831986,303.977429 104,303.977429 C131.816801,303.977429 155.40564,283.534296 159.36,256 L320.64,256 C324.59436,283.534296 348.183199,303.977429 376,303.977429 C403.816801,303.977429 427.40564,283.534296 431.36,256 L456,256 C469.254834,256 480.000204,245.254834 480.000204,232 L480.000204,139.88 C480.040238,125.02048 474.13154,110.762973 463.592,100.288 Z M452.608,112 L304,112 L304,48 L388.688,48 L452.28,111.6 C452.408,111.728 452.488,111.872 452.608,112 L452.608,112 Z M288,112 L48,112 L48,48 L288,48 L288,112 Z M16,216 L16,160 L40,160 L40,144 L16,144 L16,24 C16,19.581722 19.581722,15.9998817 24,15.9998817 L340.12,15.9998817 C350.734149,15.974138 360.918556,20.1907592 368.408,27.712 L372.688,32 L48,32 C39.163444,32 32,39.163444 32,48 L32,112 C32,120.836556 39.163444,128 48,128 L288,128 L288,240 L159.36,240 C155.40564,212.465704 131.816801,192.022571 104,192.022571 C76.1831986,192.022571 52.5943603,212.465704 48.64,240 L40,240 C26.745166,240 16,229.254834 16,216 Z M104,288 C81.90861,288 64,270.09139 64,248 C64,225.90861 81.90861,208 104,208 C126.09139,208 144,225.90861 144,248 C143.973551,270.080425 126.080425,287.973551 104,288 Z M376,288 C353.90861,288 336,270.09139 336,248 C336,225.90861 353.90861,208 376,208 C398.09139,208 416,225.90861 416,248 C415.973551,270.080425 398.080425,287.973551 376,288 Z M456,240 L431.36,240 C427.40564,212.465704 403.816801,192.022571 376,192.022571 C348.183199,192.022571 324.59436,212.465704 320.64,240 L304,240 L304,128 L462.016,128 C463.273164,131.837163 463.942079,135.84256 464,139.88 L464,144 L440,144 C426.745166,144 416,154.745166 416,168 C416,181.254834 426.745166,192 440,192 L464,192 L464,208 L440,208 L440,224 L464,224 L464,232 C464,236.418278 460.418278,240 456,240 Z M464,160 L464,176 L440,176 C435.581722,176 432,172.418278 432,168 C432,163.581722 435.581722,160 440,160 L464,160 Z" id="Shape"></path>
            <polygon id="Path" points="320 144 352 144 352 160 320 160"></polygon>
            <polygon id="Path" points="96 240 112 240 112 256 96 256"></polygon>
            <polygon id="Path" points="368 240 384 240 384 256 368 256"></polygon>
        </g>
    </g>
</svg>